<?xml version="1.0" standalone="no"?>
<!DOCTYPE svg PUBLIC "-//W3C//DTD SVG 20010904//EN"
 "http://www.w3.org/TR/2001/REC-SVG-20010904/DTD/svg10.dtd">
<svg version="1.0" xmlns="http://www.w3.org/2000/svg"
 width="820.000000pt" height="441.000000pt" viewBox="0 0 820.000000 441.000000"
 preserveAspectRatio="xMidYMid meet">
<metadata>
Created by potrace 1.16, written by Peter Selinger 2001-2019
</metadata>
<g transform="translate(0.000000,441.000000) scale(0.100000,-0.100000)"
fill="#000000" stroke="none">
<path d="M4197 3877 c-70 -75 -129 -145 -133 -161 -5 -23 10 -52 110 -201
l116 -175 0 -87 0 -88 -105 -33 c-110 -36 -229 -102 -326 -184 -77 -64 -174
-191 -224 -293 -80 -162 -105 -302 -105 -582 l0 -163 -39 0 c-87 0 -231 -36
-652 -165 -244 -75 -459 -141 -477 -147 -44 -13 -102 -65 -118 -105 -27 -62
-16 -109 116 -532 136 -438 142 -450 214 -488 16 -8 51 -16 77 -16 42 -1 80
16 326 140 153 78 302 148 332 157 74 22 152 20 204 -3 23 -11 107 -46 188
-79 80 -33 224 -95 320 -137 241 -106 302 -125 406 -125 72 0 98 5 181 36 53
20 140 58 192 84 156 78 1041 616 1087 660 56 54 85 132 85 226 0 153 -90 247
-247 260 -55 4 -91 -5 -430 -109 l-370 -114 -56 57 c-96 97 -182 124 -322 100
-128 -21 -183 -5 -517 155 -107 51 -223 102 -257 112 l-63 18 0 218 c0 246 10
314 65 433 113 247 332 414 594 455 111 17 508 6 586 -16 189 -54 349 -171
455 -332 91 -138 130 -283 130 -483 0 -93 3 -111 21 -134 28 -36 89 -37 124
-1 24 23 25 30 25 143 0 290 -82 509 -262 697 -127 133 -280 228 -430 267
l-48 12 0 91 0 91 110 164 c146 217 147 197 -17 368 -160 166 -150 164 -316
56 l-117 -76 -53 33 c-28 18 -84 55 -124 81 -108 72 -107 72 -256 -85z m299
-142 c65 -41 126 -75 137 -75 23 0 78 31 183 101 l71 48 58 -59 58 -59 -59
-90 -59 -91 -251 0 -251 0 -61 92 -62 93 57 57 c32 32 58 58 60 58 1 0 54 -34
119 -75z m304 -475 l0 -80 -165 0 -165 0 0 80 0 80 165 0 165 0 0 -80z m-1059
-1546 c24 -9 141 -63 259 -120 326 -156 420 -181 589 -154 l82 13 47 -29 c30
-19 54 -43 66 -69 l19 -39 -39 -33 c-81 -70 -265 -136 -384 -137 -69 0 -87 4
-317 86 -132 46 -145 49 -174 38 -35 -15 -58 -59 -51 -96 8 -43 55 -69 248
-134 221 -74 292 -83 420 -55 88 19 222 71 287 111 62 38 145 123 152 155 7
32 -31 18 429 159 181 55 337 100 348 100 27 0 74 -26 82 -45 13 -35 6 -93
-16 -125 -17 -25 -137 -103 -473 -307 -692 -420 -827 -481 -970 -442 -22 6
-213 85 -425 176 -438 188 -464 195 -593 170 -107 -21 -157 -42 -437 -186
-129 -67 -239 -119 -245 -117 -9 3 -246 758 -245 783 0 6 37 23 83 37 45 14
246 75 446 135 316 96 400 119 541 145 52 10 227 -3 271 -20z"/>
<path d="M4624 2920 c-36 -15 -54 -50 -54 -107 l0 -53 -42 0 c-52 0 -114 -28
-150 -66 -46 -50 -58 -93 -58 -211 0 -126 16 -172 75 -220 50 -42 102 -53 244
-53 141 0 141 0 141 -104 0 -93 -5 -96 -149 -96 -129 0 -134 2 -146 57 -8 41
-39 63 -86 63 -96 0 -106 -140 -18 -229 40 -40 93 -61 153 -61 l36 0 0 -59 c0
-54 3 -61 32 -86 25 -21 38 -25 62 -21 50 10 76 48 76 112 0 49 2 54 23 54 69
1 156 77 176 156 16 61 14 182 -4 240 -16 54 -70 115 -118 133 -16 6 -84 11
-152 11 -68 0 -135 4 -149 10 -25 9 -26 13 -26 93 0 51 5 88 12 95 8 8 51 12
129 12 127 0 149 -8 149 -54 0 -25 33 -60 67 -70 55 -17 112 51 98 116 -19 88
-74 147 -157 169 l-46 13 -4 58 c-3 41 -10 65 -24 78 -24 23 -62 32 -90 20z"/>
<path d="M5575 1895 c-29 -28 -31 -54 -10 -94 16 -33 33 -41 80 -41 64 0 100
90 55 138 -30 32 -93 30 -125 -3z"/>
</g>
</svg>
